<?xml version="1.0" encoding="UTF-8"?>
<svg width="50px" height="50px" viewBox="0 0 50 50" version="1.1" xmlns="http://www.w3.org/2000/svg" xmlns:xlink="http://www.w3.org/1999/xlink">
    <!-- Generator: Sketch 62 (91390) - https://sketch.com -->
    <title>Avatar</title>
    <desc>Created with Sketch.</desc>
    <defs>
        <path d="M20,0.0467405248 C8.95449275,0.0467405248 0,8.69289796 0,19.3586939 L0,19.3586939 C0,30.0242099 8.95449275,38.6706472 20,38.6706472 L20,38.6706472 C31.0455072,38.6706472 40,30.0242099 40,19.3586939 L40,19.3586939 C40,8.69289796 31.0455072,0.0467405248 20,0.0467405248 Z" id="path-1"></path>
    </defs>
    <g id="Page-1" stroke="none" stroke-width="1" fill="none" fill-rule="evenodd">
        <g id="Biblioteca-comics---960-px" transform="translate(-879.000000, -39.000000)">
            <g id="Avatar" transform="translate(880.000000, 40.000000)">
                <circle id="Oval" stroke="#231F20" stroke-width="2" fill="#FFFFFF" cx="24" cy="24" r="24"></circle>
                <g id="Group-6" transform="translate(4.000000, 4.000000)">
                    <path d="M40,19.5918367 C40,30.2573528 31.0455072,38.9037901 20,38.9037901 C8.9542029,38.9037901 0,30.2573528 0,19.5918367 C0,8.92604082 8.9542029,0.279883382 20,0.279883382 C31.0455072,0.279883382 40,8.92604082 40,19.5918367" id="Fill-1" fill="#E62429"></path>
                    <g id="Group-5" transform="translate(0.000000, 0.233143)">
                        <mask id="mask-2" fill="white">
                            <use xlink:href="#path-1"></use>
                        </mask>
                        <g id="Clip-4"></g>
                        <path d="M20.4637971,39.4635569 L36.8093043,37.4299242 C36.8093043,37.4299242 36.6664058,29.5500875 34.9406087,28.7454227 C33.2145217,27.940758 31.2632174,27.0073469 30.3707536,26.6054344 C29.4777101,26.2029621 28.075971,25.5880583 28.075971,25.5880583 C28.075971,25.5880583 27.0751014,23.2465539 25.5035072,22.8572362 L25.2130725,21.0740991 C25.2130725,21.0740991 26.5208986,18.868898 26.8107536,16.5598601 C26.8107536,16.5598601 27.6458261,17.395312 27.9437971,15.8433586 C28.1745217,14.6404198 28.3629275,13.3070554 27.8266957,13.0887464 C27.878,12.8290146 27.8684348,12.5555685 27.8069855,12.3420175 C27.7727826,12.2227872 27.6797391,12.1337843 27.5710435,12.0873236 L27.5693043,12.0786472 C27.7411884,11.7083615 27.8722029,11.3212828 27.9377101,10.9137726 C27.9881449,10.5991837 27.9690145,10.3212595 27.9061159,10.0091895 C27.8742319,9.84937609 27.7533623,9.71391254 27.6446667,9.57844898 C27.6646667,9.3895277 27.6498841,9.22691545 27.5652464,9.1401516 C27.4875652,9.06066472 27.404087,8.97278134 27.3235072,8.87930029 C27.2588696,8.69933528 27.1553913,8.53140525 26.993942,8.38110787 C26.9235072,8.21513703 26.8951014,8.04160933 26.9437971,7.86780175 C27.0235072,7.58344023 26.8623478,7.25821574 26.7974203,6.98420991 C26.6255362,6.25651312 25.9043768,6.13924198 25.673942,5.47507872 C25.5217681,5.03706122 24.9614783,5.01942857 24.4974203,5.07400583 C24.4411884,5.01634985 24.3878551,4.95673469 24.3408986,4.89012245 C24.2597391,4.77509038 24.0269855,4.70483965 23.9006087,4.64690379 C23.7458261,4.57581341 23.5991594,4.56685714 23.4591594,4.59876385 C23.2855362,4.24331195 22.955971,3.91053061 22.5727826,3.93012245 C22.484087,3.70369679 22.2269855,3.54416327 21.9614783,3.61749271 C21.8069855,3.66003499 21.6635072,3.73336443 21.5435072,3.83188338 C21.520029,3.79186006 21.491913,3.75463557 21.453942,3.72524781 C21.0614783,3.42129446 20.4301739,3.61105539 19.9632174,3.61217493 C19.6122029,3.61301458 19.3435072,3.68158601 19.0884348,3.80809329 C19.0794493,3.80025656 19.0745217,3.78990087 19.064087,3.78290379 C18.8006087,3.59930029 18.511913,3.69334111 18.2391594,3.81005248 C18.0606087,3.88646064 18.0055362,3.95167347 17.8072754,3.93963848 C17.631913,3.92900292 17.4272754,3.91836735 17.2614783,3.98721866 C17.0235072,4.08573761 16.8745217,4.30936443 16.7930725,4.56797668 C16.7678551,4.57721283 16.742058,4.58532945 16.718,4.59568513 C16.704087,4.56377843 16.6875652,4.53327114 16.6637971,4.50724198 C16.0904638,3.87890379 15.0782899,5.14313703 14.9130725,5.59458892 C14.9101739,5.60298542 14.9043768,5.60858309 14.9008986,5.61613994 C14.6681449,5.65924198 14.4562609,5.77371429 14.2693043,5.93576676 C14.2110435,5.95144023 14.1553913,5.96767347 14.1090145,5.98922449 C13.8771304,6.09586006 13.8017681,6.36678717 13.733942,6.58005831 C13.7052464,6.67018076 13.7011884,6.76282216 13.7069855,6.85546356 C13.6730725,6.95006414 13.633942,7.04158601 13.5933623,7.13198834 C13.464087,7.09028571 13.320029,7.11939359 13.2298841,7.2724898 C12.9811884,7.6951137 12.7261159,8.09478717 12.5417681,8.54791837 C12.4916232,8.67078717 12.4658261,8.78358017 12.4553913,8.89133528 C12.060029,9.31955685 11.8516232,9.86560933 12.4142319,10.3402915 C12.458,10.3769563 12.2478551,11.4931312 12.2437971,11.5930496 C12.2203188,12.1435802 12.4330725,12.6025889 12.5742319,13.096863 C11.5632174,12.7803149 11.7803188,14.4058776 12.055971,15.8433586 C12.3536522,17.395312 13.1884348,16.5598601 13.1884348,16.5598601 C13.4782899,18.868898 14.7852464,21.0740991 14.7852464,21.0740991 L14.4927826,22.8572362 C12.9211884,23.2465539 11.9168406,25.5880583 11.9168406,25.5880583 C11.9168406,25.5880583 10.5078551,26.2029621 9.61481159,26.6054344 C8.72234783,27.0073469 6.75626087,27.940758 5.03017391,28.7454227 C3.30437681,29.5500875 3.07510145,37.4299242 3.07510145,37.4299242 L20.4637971,39.4635569 Z" id="Fill-3" fill="#FFFFFF" mask="url(#mask-2)"></path>
                    </g>
                </g>
            </g>
        </g>
    </g>
</svg>