<?xml version="1.0" encoding="UTF-8"?>
<svg width="120px" height="95px" viewBox="0 0 120 95" version="1.1" xmlns="http://www.w3.org/2000/svg" xmlns:xlink="http://www.w3.org/1999/xlink">
    <title>logo-comic-marvel</title>
    <desc>Created with Sketch.</desc>
    <g id="Page-1" stroke="none" stroke-width="1" fill="none" fill-rule="evenodd">
        <g id="Login---1280-px" transform="translate(-900.000000, -280.000000)">
            <g id="Login" transform="translate(755.000000, 241.000000)">
                <g id="logo-comic-marvel" transform="translate(145.000000, 39.000000)">
                    <path d="M89.0121547,80.2073445 C85.1999716,80.2089803 81.4449327,79.2818096 78.0729282,77.5060976 C72.2754849,79.168932 66.0599676,78.5456759 60.7093923,75.7649826 C54.0757112,80.5527808 45.4232305,81.5437123 37.8762431,78.3799652 C37.4220994,78.406446 36.9712707,78.4196864 36.5270718,78.4196864 C30.9985092,78.428077 25.6460415,76.4787931 21.4209945,72.9182927 C9.30046832,71.8530701 0.00296240059,61.7185312 0,49.5688153 C0.0279997919,41.248078 4.44608679,33.5581561 11.6254144,29.3341463 C13.6876425,16.7176212 25.4912654,8.07616102 38.161326,9.90714286 C42.4717127,3.81936508 49.4257903,0.142797286 56.8909928,0.00491081921 C64.3561953,-0.132975647 71.441681,3.28427356 75.9745856,9.2087108 C87.5523923,5.03350268 100.393731,10.4971616 105.39779,21.7275261 C112.740932,24.825787 118.007061,31.434206 119.381235,39.2752281 C120.755409,47.1162503 118.049726,55.117711 112.196685,60.5219512 C110.389614,71.8961409 100.545233,80.2546677 89.0121547,80.2073445 Z" id="Path" fill="#231F20" fill-rule="nonzero"></path>
                    <path d="M116.946997,42.5480836 C116.946997,33.9228018 111.449083,26.254026 103.272928,23.4719512 C101.287904,17.9874871 97.0216071,13.6301482 91.575358,11.5247582 C86.1291089,9.41936824 80.0366505,9.77225932 74.8707182,12.4923345 C71.2705991,6.12254584 64.4967043,2.20068363 57.172011,2.24498762 C49.8473177,2.29004713 43.1219138,6.29425714 39.6,12.7074913 C33.802896,11.1795544 27.6255897,12.3032628 22.7405067,15.7743868 C17.8554237,19.2455109 14.7678888,24.7049891 14.3138122,30.6747387 C5.88375898,34.6634192 1.28998532,43.9016906 3.20318372,53.0186782 C5.11638213,62.1356659 13.0379183,68.7552218 22.3624309,69.0289199 C26.6133651,73.0371134 32.396586,75.0067368 38.2143646,74.4277003 C45.6187188,77.8975759 54.3878558,76.565818 60.4243094,71.0547038 C65.8199986,74.7027389 72.6455809,75.5308229 78.759116,73.2790941 C84.6796677,76.9707218 92.0902647,77.3453219 98.3538965,74.2695956 C104.617528,71.1938693 108.84481,65.1045449 109.531492,58.1684669 C114.233965,54.3432627 116.958291,48.60458 116.946997,42.5480836 Z" id="Path" fill="#FFFFFF" fill-rule="nonzero"></path>
                    <path d="M82.1502762,19.695122 C82.1502762,19.695122 82.5414365,13.266899 73.8265193,10.6353659 C68.360221,8.98031359 64.3856354,14.7498258 64.3856354,14.7498258 C64.3856354,14.7498258 73.3359116,7.86811847 82.1502762,19.695122 Z" id="Path" fill="#231F20" fill-rule="nonzero"></path>
                    <path d="M67.5414365,66.1590592 C67.5414365,66.1590592 63.8950276,85.7515679 72.6265193,93.3979094 C72.6265193,93.3979094 54.4243094,89.6045296 52.4055249,68.2146341 L67.5414365,66.1590592 Z" id="Path" fill="#FFFFFF" fill-rule="nonzero"></path>
                    <path d="M66.6696133,88.1017422 C62.721547,71.5512195 68.8574586,62.7264808 68.8574586,62.7264808 C68.8574586,62.7264808 64.4353591,88.4989547 75.1823204,94.6954704 C75.1823204,94.6954704 52.8331492,92.9047038 50.8872928,64.2425087 C50.8872928,64.2226481 55.1801105,81.7860627 66.6696133,88.1017422 Z" id="Path" fill="#231F20" fill-rule="nonzero"></path>
                    <path d="M27.0232044,22.895993 C27.4209945,24.9482578 26.8839779,26.5911731 25.4121547,27.8247387 C24.4176796,27.1847851 22.8585635,26.6772358 20.7348066,26.3020906 C18.8718232,26.1211382 17.3524862,26.6595819 16.1767956,27.9174216 C14.9524854,29.2803451 14.1953622,30.9976329 14.0154696,32.8196864 C13.6265193,34.0885598 13.8662983,35.7149245 14.7348066,37.6987805 C15.6033149,39.4994774 16.9292818,40.4516841 18.7127072,40.5554007 C20.4961326,40.6591173 22.6243094,40.3115563 25.0972376,39.5127178 C25.9778255,41.1034533 26.0696611,43.0120824 25.3458564,44.6797909 C22.4066298,46.0259001 20.0243094,46.6647503 18.198895,46.5963415 C14.8287293,46.1726481 12.3723757,44.9523229 10.8298343,42.9353659 C8.77237569,40.2321138 8.07513812,36.4111498 8.73812155,31.4724739 C9.26187845,27.5731707 10.5016575,24.624971 12.4574586,22.6278746 C15.0033149,20.5623693 18.0972376,19.7182927 21.7392265,20.0956446 C24.2563536,20.2633566 26.0176796,21.196806 27.0232044,22.895993 Z" id="Path" stroke="#231F20" stroke-width="1.37" fill="#231F20" fill-rule="nonzero"></path>
                    <path d="M42.8486188,20.3803136 C45.9911602,20.3803136 48.4872928,21.607259 50.3370166,24.0611498 C52.1867403,26.5150407 52.9414365,29.6199187 52.601105,33.375784 C52.2563536,37.1272358 51,40.2277003 48.8320442,42.6771777 C46.6640884,45.1266551 43.9933702,46.3469803 40.8198895,46.3381533 C37.8141847,46.414071 34.9421858,45.098071 33.039779,42.7731707 C31.0220994,40.3943089 30.1790055,37.3390825 30.5104972,33.6074913 C30.841989,29.8759001 32.1955801,26.7368177 34.5712707,24.1902439 C36.9491713,21.6524971 39.7082873,20.3825203 42.8486188,20.3803136 Z M42.3712707,26.8383275 C40.8618785,26.8184669 39.5049724,27.4231127 38.3005525,28.6522648 C37.0961326,29.881417 36.3679558,31.5121951 36.1160221,33.5445993 C35.8640884,35.581417 36.2861878,37.2673635 37.3823204,38.602439 C38.478453,39.9375145 39.8044199,40.5675377 41.360221,40.4925087 C42.8958608,40.425453 44.3241227,39.6869344 45.2651934,38.4733449 C46.3528228,37.1072987 46.9959602,35.4417273 47.1082873,33.7001742 C47.2850829,31.7736934 46.9171271,30.1484321 46.0044199,28.8243902 C45.2162309,27.5822831 43.8438611,26.8320765 42.3712707,26.8383275 Z" id="Shape" stroke="#231F20" stroke-width="1.37" fill="#231F20" fill-rule="nonzero"></path>
                    <path d="M62.9436464,20.7907666 L66.921547,35.1665505 L73.9657459,20.7576655 C75.5239412,20.3349971 77.1653465,20.3235912 78.7292818,20.7245645 L77.1712707,46.0998258 L71.6022099,46.1527875 L72.3049724,34.0013937 L67.0607735,45.91777 C66.1922652,46.3591173 65.4187845,46.1991289 64.7403315,45.4378049 L61.9292818,33.9054007 L61.0209945,46.2090592 L55.4850829,46.1594077 L57.2187845,20.7642857 C58.6574586,20.1309524 60.5657459,20.1397793 62.9436464,20.7907666 Z" id="Path" stroke="#231F20" stroke-width="1.37" fill="#231F20" fill-rule="nonzero"></path>
                    <path d="M83.4497238,20.6020906 C85.3183843,20.1936166 87.2617327,20.2826526 89.0850829,20.8602787 L87.0629834,46.0170732 C84.7337017,46.6790941 82.7635359,46.5941347 81.1524862,45.7621951 L83.4497238,20.6020906 Z" id="Path" stroke="#231F20" stroke-width="1.37" fill="#231F20" fill-rule="nonzero"></path>
                    <path d="M110.741436,22.895993 C111.139227,24.9482578 110.60221,26.5911731 109.130387,27.8247387 C108.135912,27.1847851 106.575691,26.6772358 104.449724,26.3020906 C102.58895,26.1211382 101.069613,26.6595819 99.8917127,27.9174216 C98.7138122,29.1752613 97.9944751,30.8093496 97.7337017,32.8196864 C97.3469613,34.0885598 97.5867403,35.7149245 98.4530387,37.6987805 C99.321547,39.4994774 100.647514,40.4516841 102.430939,40.5554007 C104.214365,40.6591173 106.342541,40.3115563 108.81547,39.5127178 C109.699448,41.2781069 109.78453,43.0004646 109.070718,44.6797909 C106.127072,46.0259001 103.743646,46.6647503 101.920442,46.5963415 C98.5524862,46.1726481 96.0961326,44.9523229 94.5513812,42.9353659 C92.4961326,40.2321138 91.8,36.4155633 92.4629834,31.4857143 C92.9867403,27.5864111 94.2265193,24.6382114 96.1823204,22.641115 C98.7281768,20.5756098 101.822099,19.7315331 105.464088,20.108885 C107.976796,20.26777 109.735912,21.196806 110.741436,22.895993 Z" id="Path" stroke="#231F20" stroke-width="1.37" fill="#231F20" fill-rule="nonzero"></path>
                    <path d="M26.6220994,20.0857143 C27.0088398,22.071777 26.4895028,23.6628339 25.0640884,24.858885 C24.0983425,24.2409988 22.5878453,23.7488966 20.5325967,23.3825784 C18.7292818,23.2060395 17.2585635,23.7279326 16.120442,24.9482578 C14.9360463,26.268506 14.2034188,27.9310457 14.0287293,29.6949477 C13.6508287,30.9240999 13.8872928,32.4986063 14.7381215,34.4184669 C15.5801105,36.1639954 16.8607735,37.0864111 18.5801105,37.1857143 C20.2994475,37.2850174 22.3558011,36.9473868 24.7491713,36.1728223 C25.6087234,37.7101623 25.7066545,39.5583715 25.0143646,41.1777003 C22.1701657,42.4818815 19.8629834,43.1008711 18.0928177,43.034669 C14.8309392,42.624216 12.4530387,41.4425087 10.959116,39.489547 C8.97016575,36.8723577 8.29502762,33.1771777 8.93370166,28.404007 C9.43314917,24.6238676 10.6276243,21.7683508 12.5171271,19.8374564 C14.9878453,17.8381533 17.9812155,17.0205575 21.4972376,17.384669 C23.9414365,17.5413473 25.6497238,18.4416957 26.6220994,20.0857143 Z" id="Path" fill="#FEC619" fill-rule="nonzero"></path>
                    <path d="M18.3314917,43.4848432 L18.0232044,43.4848432 C14.6486188,43.0578397 12.1491713,41.8033101 10.5878453,39.7477352 C8.52928177,37.0466899 7.8198895,33.2036585 8.47292818,28.3344948 C8.99337017,24.478223 10.2464088,21.5090592 12.198895,19.5163763 L12.2353591,19.4799652 C14.7878453,17.4144599 17.9171271,16.5571429 21.5403315,16.9311847 C24.1127072,17.0933798 25.959116,18.0764808 27.0066298,19.8473868 L27.0464088,19.9135889 L27.0629834,19.9897213 C27.480663,22.1412892 26.9038674,23.8890244 25.3491713,25.1898955 L25.0972376,25.4017422 L24.8220994,25.2229965 C23.9171271,24.6503484 22.4519337,24.1902439 20.4729282,23.8261324 C18.8154696,23.6672474 17.4895028,24.1339721 16.4453039,25.2527875 C15.3279392,26.5075282 14.6374399,28.0835209 14.4729282,29.7545296 L14.4563536,29.8273519 C14.1248619,30.9428571 14.3436464,32.425784 15.1359116,34.2397213 C15.9016575,35.8252613 17.0320442,36.6494774 18.5933702,36.7388502 C20.2508287,36.8348432 22.2729282,36.5005226 24.6099448,35.7458188 L24.9745856,35.6299652 L25.1469613,35.9609756 C26.0600724,37.6189326 26.1566906,39.6046671 25.4088398,41.3432056 L25.3392265,41.5020906 L25.1834254,41.5749129 C22.4287293,42.845993 20.1281768,43.4848432 18.3314917,43.4848432 Z M18.1127072,42.5878049 C19.7701657,42.6440767 21.9679558,42.0581882 24.6497238,40.8466899 C25.1858244,39.511173 25.1353043,38.012184 24.5104972,36.7156794 C22.2265193,37.4207317 20.201105,37.7285714 18.5436464,37.6325784 C16.6574586,37.5233449 15.2287293,36.5071429 14.3270718,34.610453 C13.4453039,32.6012195 13.2033149,30.9196864 13.5944751,29.6022648 C13.7846923,27.7566414 14.5552109,26.018539 15.7955801,24.637108 C17.0287293,23.3130662 18.639779,22.7404181 20.5790055,22.9324042 L20.6154696,22.9324042 C22.5546961,23.2634146 24,23.7235192 25.0143646,24.2961672 C26.121547,23.2501742 26.5093923,21.9195122 26.201105,20.2379791 C25.2928177,18.7550523 23.7447514,17.9639373 21.4707182,17.8216028 C18.0828729,17.4707317 15.1723757,18.2552265 12.8254144,20.1585366 C11.0187845,22.0121951 9.84198895,24.7926829 9.36464088,28.4536585 C8.74143646,33.0878049 9.39447514,36.6991289 11.3005525,39.2081882 C12.7060773,41.071777 15,42.1939024 18.1127072,42.5878049 L18.1127072,42.5878049 Z" id="Shape" fill="#231F20" fill-rule="nonzero"></path>
                    <path d="M41.9469613,17.6494774 C44.9900552,17.6494774 47.4121547,18.8367015 49.2132597,21.2111498 C51.0143646,23.5855981 51.7447514,26.5933798 51.4044199,30.2344948 C51.0729282,33.8756098 49.8574586,36.8778746 47.758011,39.2412892 C45.6585635,41.6047038 43.0729282,42.7864111 40.001105,42.7864111 C37.0905286,42.859373 34.3099082,41.5835133 32.4696133,39.330662 C30.5049724,37.0268293 29.6773481,34.0698026 29.9867403,30.4595819 C30.2961326,26.8493612 31.6121547,23.8106852 33.9348066,21.343554 C36.2353591,18.8808362 38.9060773,17.6494774 41.9469613,17.6494774 Z M41.4828729,23.8890244 C40.0243094,23.8735772 38.7104972,24.4583624 37.5414365,25.6433798 C36.3723757,26.8283972 35.6674033,28.4084204 35.4265193,30.3834495 C35.1856354,32.3562718 35.5955801,33.9881533 36.6563536,35.2790941 C37.7171271,36.5700348 39,37.1768873 40.5049724,37.0996516 C41.9926868,37.03828 43.3771591,36.3234222 44.2872928,35.1466899 C45.3438521,33.8212807 45.966489,32.2033883 46.0707182,30.5125436 C46.2430939,28.6610918 45.8861878,27.0954123 45,25.8155052 C44.237799,24.6117031 42.9091552,23.8839481 41.4828729,23.8890244 Z" id="Shape" fill="#FEC619" fill-rule="nonzero"></path>
                    <path d="M39.9812155,43.2332753 C36.9398946,43.301356 34.0363519,41.9682758 32.1082873,39.6186411 C30.0828729,37.2320557 29.2243094,34.137108 29.5558011,30.4198606 C29.8872928,26.7026132 31.2464088,23.5679443 33.6066298,21.0390244 C35.9668508,18.5101045 38.7911602,17.2026132 41.9469613,17.2026132 C45.1027624,17.2026132 47.6850829,18.460453 49.5712707,20.9430314 C51.4574586,23.4256098 52.1900552,26.537108 51.8486188,30.274216 C51.5071823,34.011324 50.2441989,37.1095819 48.0861878,39.5425087 C46.0719392,41.9194814 43.0992344,43.2731639 39.9812155,43.2332753 L39.9812155,43.2332753 Z M41.9469613,18.0963415 C39.0497238,18.0963415 36.4640884,19.2912892 34.2596685,21.6480836 C32.0552486,24.004878 30.7558011,27.0038328 30.4475138,30.495993 C30.1392265,33.9881533 30.9248619,36.8447735 32.7911602,39.0426829 C34.5492067,41.19316 37.201839,42.4143592 39.9812155,42.3527875 C42.8387789,42.3832062 45.5606448,41.1377483 47.4033149,38.9566202 C49.4320442,36.6759582 50.6220994,33.7332753 50.9436464,30.2080139 C51.2651934,26.6827526 50.5558011,23.7665505 48.841989,21.4925087 C47.1281768,19.2184669 44.8674033,18.0963415 41.9469613,18.0963415 Z M40.2629834,37.5630662 C38.7248619,37.5630662 37.3955801,36.9010453 36.2850829,35.5770035 C35.1480663,34.1900697 34.7005525,32.4290941 34.959116,30.3404181 C35.2176796,28.2517422 35.9535912,26.6 37.2,25.3454704 C38.4464088,24.0909408 39.8883978,23.43223 41.4662983,23.4554007 L41.4662983,23.4554007 C43.0419599,23.4558193 44.5073343,24.2630418 45.3480663,25.5937282 C46.2895028,26.9574913 46.6740331,28.6390244 46.4950276,30.5853659 C46.3772014,32.3612722 45.7191316,34.0589139 44.6088398,35.4512195 C43.6184995,36.7262679 42.1161376,37.5011797 40.5016575,37.5696864 L40.2629834,37.5630662 Z M41.4165746,24.322616 C40.0906077,24.322616 38.9270718,24.8522648 37.8563536,25.9445993 C36.7856354,27.0369338 36.0928177,28.562892 35.8674033,30.4231707 C35.641989,32.2834495 36.0066298,33.7763066 36.9977901,34.9844948 C37.9889503,36.1926829 39.1093923,36.7156794 40.481768,36.639547 C41.8438383,36.5837312 43.1106316,35.9263916 43.9392265,34.8454704 C44.9321091,33.5946988 45.520576,32.0719856 45.6265193,30.4794425 C45.7856354,28.7449477 45.4541436,27.2620209 44.6320442,26.0736934 C43.9590217,24.9808904 42.7643242,24.3172968 41.479558,24.322616 L41.4165746,24.322616 Z" id="Shape" fill="#231F20" fill-rule="nonzero"></path>
                    <path d="M61.4055249,18.0466899 L65.2707182,31.9656794 L72.0861878,18.0135889 C73.5946398,17.6057667 75.1830696,17.594364 76.6972376,17.9804878 L75.1889503,42.5547038 L69.7955801,42.6043554 L70.4585635,30.8402439 L65.3801105,42.3726481 C64.5414365,42.7897213 63.7955801,42.6374564 63.1425414,41.9059233 L60.4209945,30.7409408 L59.5392265,42.6573171 L54.1823204,42.6076655 L55.8563536,18.016899 C57.2552486,17.4100465 59.1049724,17.4199768 61.4055249,18.0466899 Z" id="Path" fill="#FEC619" fill-rule="nonzero"></path>
                    <path d="M59.9801105,43.1041812 L53.7248619,43.0578397 L55.4519337,17.7289199 L55.7005525,17.6196864 C57.1723757,16.9576655 59.1314917,16.9576655 61.5248619,17.6196864 L61.7701657,17.6858885 L65.3867403,30.7111498 L71.7812155,17.6329268 L71.9801105,17.5799652 C73.5631201,17.1567065 75.2284562,17.1464486 76.8165746,17.5501742 L77.1745856,17.6428571 L75.6165746,42.9949477 L69.318232,43.0545296 L69.881768,33.2864111 L65.7381215,42.7003484 L65.5955801,42.7698606 C64.5679558,43.2829268 63.6066298,43.1008711 62.8209945,42.2038328 L62.7480663,42.1210801 L60.6696133,33.6008711 L59.9801105,43.1041812 Z M54.6762431,42.1608014 L59.1414365,42.2038328 L60.198895,27.8777003 L63.5635359,41.6874564 C63.9245851,42.1308321 64.5436742,42.2679031 65.0585635,42.0184669 L71.0651934,28.374216 L70.2696133,42.1343206 L74.7679558,42.0945993 L76.2298343,18.3114983 C74.9682851,18.059387 73.6665292,18.0887753 72.4176796,18.397561 L65.158011,33.2202091 L61.0441989,18.4141115 C59.1016575,17.9010453 57.5005525,17.9010453 56.3071823,18.3247387 L54.6762431,42.1608014 Z" id="Shape" fill="#231F20" fill-rule="nonzero"></path>
                    <path d="M81.2618785,17.8646341 C83.0669414,17.4727313 84.9432041,17.5583071 86.7049724,18.112892 L84.7458564,42.4885017 C82.4872928,43.1284553 80.5790055,43.0457027 79.0209945,42.2402439 L81.2618785,17.8646341 Z" id="Path" fill="#FEC619" fill-rule="nonzero"></path>
                    <path d="M81.958011,43.3557491 C80.867383,43.3733501 79.7888452,43.1256919 78.8154696,42.6341463 L78.5469613,42.4984321 L80.8441989,17.5038328 L81.1756906,17.4310105 C83.0552601,17.0225351 85.0090017,17.1103829 86.8441989,17.6858885 L87.1955801,17.7851916 L85.1834254,42.8327526 L84.8850829,42.9155052 C83.9347076,43.1977529 82.9494807,43.3459351 81.958011,43.3557491 L81.958011,43.3557491 Z M79.4950276,41.9721254 C80.8209945,42.5646341 82.4486188,42.6341463 84.3248619,42.1376307 L86.2276243,18.4472125 C84.7463937,18.0322297 83.19011,17.9586597 81.6762431,18.2320557 L79.4950276,41.9721254 Z" id="Shape" fill="#231F20" fill-rule="nonzero"></path>
                    <path d="M107.688398,20.0857143 C108.075138,22.071777 107.554696,23.6628339 106.127072,24.858885 C105.165746,24.2409988 103.656354,23.7488966 101.598895,23.3825784 C99.7955801,23.2060395 98.3237569,23.7279326 97.1834254,24.9482578 C95.9990297,26.268506 95.2664022,27.9310457 95.0917127,29.6949477 C94.718232,30.9240999 94.9513812,32.4986063 95.7911602,34.4184669 C96.6309392,36.1639954 97.9104972,37.0864111 99.6298343,37.1857143 C101.349171,37.2850174 103.409945,36.9473868 105.812155,36.1728223 C106.666335,37.7127656 106.758142,39.560907 106.060773,41.1777003 C103.218785,42.4818815 100.912707,43.1008711 99.1425414,43.034669 C95.8762431,42.624216 93.4972376,41.4425087 92.0055249,39.489547 C90.0165746,36.8723577 89.3425414,33.1771777 89.9834254,28.404007 C90.4895028,24.6238676 91.6895028,21.7683508 93.5834254,19.8374564 C96.0497238,17.8381533 99.041989,17.0205575 102.560221,17.384669 C105.00663,17.5413473 106.716022,18.4416957 107.688398,20.0857143 Z" id="Path" fill="#FEC619" fill-rule="nonzero"></path>
                    <path d="M99.3944751,43.4848432 L99.0861878,43.4848432 C95.7149171,43.0578397 93.2121547,41.8033101 91.6441989,39.7477352 C89.5889503,37.0466899 88.8762431,33.2036585 89.5325967,28.3344948 C90.0530387,24.4749129 91.3060773,21.5090592 93.2552486,19.5163763 L93.2950276,19.4799652 C95.8441989,17.4144599 98.9767956,16.5538328 102.6,16.9311847 C105.172376,17.0933798 107.018785,18.0764808 108.066298,19.8473868 L108.106077,19.9135889 L108.106077,19.9897213 C108.527072,22.1412892 107.950276,23.8890244 106.39558,25.1898955 L106.143646,25.4017422 L105.865193,25.2229965 C104.960221,24.6404181 103.498343,24.1670732 101.516022,23.8162021 C99.8585635,23.6573171 98.5325967,24.1240418 97.4917127,25.2428571 C96.3683307,26.4954423 95.6719339,28.0716501 95.5027624,29.7445993 L95.4861878,29.8174216 C95.1546961,30.9329268 95.3734807,32.4158537 96.1657459,34.2297909 C96.9314917,35.815331 98.0651934,36.639547 99.6232044,36.7289199 C101.280663,36.8249129 103.306077,36.4905923 105.643094,35.7358885 L106.00442,35.6200348 L106.18011,35.9510453 C107.092556,37.6082166 107.187971,39.593146 106.438674,41.3299652 L106.372376,41.4888502 L106.21326,41.5616725 C103.495028,42.845993 101.19116,43.4848432 99.3944751,43.4848432 Z M99.1790055,42.5878049 C100.836464,42.6440767 103.030939,42.0581882 105.716022,40.8466899 C106.250478,39.5108852 106.199981,38.0125816 105.576796,36.7156794 C103.289503,37.4207317 101.283978,37.7285714 99.6099448,37.6325784 C97.720442,37.5233449 96.2950276,36.5071429 95.3900552,34.610453 C94.5116022,32.6012195 94.2662983,30.9229965 94.6574586,29.6022648 C94.8492294,27.7570539 95.6195448,26.0194102 96.8585635,24.637108 C98.0950276,23.3130662 99.7027624,22.7404181 101.645304,22.9324042 L101.678453,22.9324042 C103.620994,23.2634146 105.066298,23.7235192 106.080663,24.2961672 C107.187845,23.2501742 107.575691,21.9195122 107.267403,20.2379791 C106.359116,18.7550523 104.81105,17.9639373 102.533702,17.8216028 C99.1458564,17.4707317 96.2353591,18.2552265 93.8883978,20.1585366 C92.0850829,22.0121951 90.921547,24.7926829 90.4276243,28.4536585 C89.8077348,33.0878049 90.4574586,36.6991289 92.3668508,39.2081882 C93.7690608,41.071777 96.0629834,42.1939024 99.1790055,42.5878049 L99.1790055,42.5878049 Z" id="Shape" fill="#231F20" fill-rule="nonzero"></path>
                    <rect id="Rectangle" fill="#231F20" fill-rule="nonzero" x="25.680663" y="46.5566202" width="71.2707182" height="28.7283972"></rect>
                    <rect id="Rectangle" fill="#DD1F26" fill-rule="nonzero" x="28.1668508" y="49.1020906" width="66.2983425" height="23.8261324"></rect>
                    <path d="M52.3027624,71.2433798 L52.0375691,68.621777 L49.6209945,68.621777 L49.3226519,71.2433798 L45.6165746,71.2433798 L48.8121547,50.8796167 L53.1911602,50.8796167 L56.0154696,71.2433798 L52.3027624,71.2433798 Z M51.6165746,64.2921603 L51.2254144,59.565331 C51.1226519,58.2942509 51.0497238,57 50.9635359,55.7289199 L50.9270718,55.7289199 C50.8209945,57 50.7314917,58.2942509 50.5955801,59.565331 L50.1016575,64.2921603 L51.6165746,64.2921603 Z" id="Shape" fill="#FFFFFF"></path>
                    <path d="M61.8994475,71.2433798 L59.9104972,62.762892 L59.8773481,62.8158537 C59.8773481,63.808885 59.9303867,64.8019164 59.9303867,65.8148084 L59.9303867,71.2433798 L56.3237569,71.2433798 L56.3237569,50.8796167 L59.801105,50.8796167 C62.920442,50.8796167 65.1779006,52.283101 65.1779006,57.6554007 C65.1779006,59.8996516 64.5447514,61.8956446 63.1160221,62.762892 L65.7878453,71.2433798 L61.8994475,71.2433798 Z M60.1524862,60.3034843 C61.1038674,60.3034843 61.6176796,59.0357143 61.6176796,57.7116725 C61.6176796,55.9275261 60.9116022,55.1728223 59.9237569,55.2522648 L59.9237569,60.2703833 L60.1524862,60.2968641 L60.1524862,60.3034843 Z" id="Shape" fill="#FFFFFF"></path>
                    <path d="M67.7767956,71.2433798 L64.7270718,50.8796167 L68.5027624,50.8796167 L69.3480663,59.2508711 C69.5071823,60.9059233 69.5933702,62.5179443 69.7359116,64.1663763 L69.7657459,64.1663763 C69.921547,62.511324 69.9779006,60.895993 70.1701657,59.2508711 L71.1646409,50.8796167 L75.0696133,50.8796167 L71.4530387,71.2433798 L67.7767956,71.2433798 Z" id="Path" fill="#FFFFFF"></path>
                    <polygon id="Path" fill="#FFFFFF" points="75.2353591 50.8763066 81.921547 50.8763066 81.921547 55.6825784 78.8320442 55.6825784 78.8320442 58.519338 81.6033149 58.519338 81.6033149 63.3289199 78.8320442 63.3289199 78.8320442 66.4337979 81.921547 66.4337979 81.921547 71.2400697 75.2353591 71.2400697 75.2353591 50.8763066"></polygon>
                    <polygon id="Path" fill="#FFFFFF" points="83.1546961 71.2400697 83.1546961 50.8763066 86.7513812 50.8763066 86.7513812 66.4337979 89.4530387 66.4337979 89.4530387 71.2400697 83.1546961 71.2400697"></polygon>
                    <path d="M33.0994475,50.8796167 L33.0994475,71.2433798 L36.8552486,71.2433798 L36.8552486,62.8853659 L38.479558,71.2433798 L39.5038674,71.2433798 L39.5038674,60.1545296 L37.8828729,50.8862369 L33.0994475,50.8796167 Z M41.1281768,50.8796167 L39.5038674,60.1479094 L39.5038674,71.2367596 L40.5281768,71.2367596 L42.1524862,62.8787456 L42.1524862,71.2367596 L45.8983425,71.2367596 L45.8983425,50.8796167 L41.1281768,50.8796167 Z" id="Shape" fill="#FFFFFF"></path>
                </g>
            </g>
        </g>
    </g>
</svg>
